<svg width="22" height="23" viewBox="0 0 22 23" fill="none" xmlns="http://www.w3.org/2000/svg">
<path d="M20.625 10.125H12.375V1.875C12.375 1.51033 12.2301 1.16059 11.9723 0.902728C11.7144 0.644866 11.3647 0.5 11 0.5C10.6353 0.5 10.2856 0.644866 10.0277 0.902728C9.76987 1.16059 9.625 1.51033 9.625 1.875V10.125H1.375C1.01033 10.125 0.660591 10.2699 0.402728 10.5277C0.144866 10.7856 0 11.1353 0 11.5C0 11.8647 0.144866 12.2144 0.402728 12.4723C0.660591 12.7301 1.01033 12.875 1.375 12.875H9.625V21.125C9.625 21.4897 9.76987 21.8394 10.0277 22.0973C10.2856 22.3551 10.6353 22.5 11 22.5C11.3647 22.5 11.7144 22.3551 11.9723 22.0973C12.2301 21.8394 12.375 21.4897 12.375 21.125V12.875H20.625C20.9897 12.875 21.3394 12.7301 21.5973 12.4723C21.8551 12.2144 22 11.8647 22 11.5C22 11.1353 21.8551 10.7856 21.5973 10.5277C21.3394 10.2699 20.9897 10.125 20.625 10.125Z" fill="#0185CA"/>
</svg>
