<svg width="30" height="30" viewBox="0 0 30 30" fill="none" xmlns="http://www.w3.org/2000/svg">
<path d="M25.8644 4.69375C25.6922 4.42951 25.4569 4.21231 25.1797 4.06174C24.9026 3.91116 24.5923 3.83195 24.2769 3.83125L18.7644 3.83125C18.4065 3.83002 18.0558 3.93193 17.7543 4.1248C17.4529 4.31766 17.2133 4.59331 17.0644 4.91875L14.9994 9.35625L12.9244 4.91875C12.7755 4.59331 12.5359 4.31766 12.2345 4.1248C11.933 3.93193 11.5823 3.83002 11.2244 3.83125H5.7144C5.39912 3.83264 5.08928 3.91351 4.81354 4.06637C4.5378 4.21924 4.30505 4.43917 4.13684 4.70583C3.96862 4.97249 3.87036 5.27726 3.85114 5.59195C3.83193 5.90665 3.89238 6.22111 4.0269 6.50625L8.6894 16.5312C8.3122 17.4035 8.11656 18.3434 8.1144 19.2937C8.1144 21.1171 8.83873 22.8658 10.128 24.1551C11.4174 25.4444 13.166 26.1687 14.9894 26.1687C16.8128 26.1687 18.5614 25.4444 19.8508 24.1551C21.1401 22.8658 21.8644 21.1171 21.8644 19.2937C21.8677 18.3469 21.6718 17.4099 21.2894 16.5437L25.9769 6.50625C26.1098 6.21848 26.1691 5.90217 26.1495 5.58579C26.1299 5.26941 26.0319 4.96288 25.8644 4.69375ZM5.1519 5.98125C5.10829 5.8837 5.08893 5.77705 5.09546 5.6704C5.10199 5.56374 5.13422 5.46025 5.1894 5.36875C5.24587 5.28073 5.32352 5.20829 5.41524 5.15806C5.50696 5.10783 5.60982 5.08142 5.7144 5.08125H11.2269C11.3472 5.08127 11.465 5.11533 11.5667 5.17947C11.6685 5.24362 11.75 5.33524 11.8019 5.44375L15.0644 12.4187H14.9894C13.9104 12.4201 12.8469 12.6755 11.885 13.164C10.923 13.6526 10.0895 14.3608 9.4519 15.2312L5.1519 5.98125ZM14.9894 24.9187C13.8769 24.9187 12.7893 24.5888 11.8643 23.9708C10.9393 23.3527 10.2183 22.4742 9.79258 21.4463C9.36683 20.4185 9.25544 19.2875 9.47248 18.1964C9.68952 17.1052 10.2253 16.1029 11.0119 15.3163C11.7986 14.5296 12.8009 13.9939 13.892 13.7768C14.9832 13.5598 16.1142 13.6712 17.142 14.0969C18.1698 14.5227 19.0483 15.2436 19.6664 16.1687C20.2845 17.0937 20.6144 18.1812 20.6144 19.2937C20.6144 20.0324 20.4689 20.7639 20.1862 21.4463C19.9035 22.1288 19.4892 22.7489 18.9669 23.2712C18.4445 23.7936 17.8244 24.2079 17.142 24.4906C16.4595 24.7733 15.7281 24.9187 14.9894 24.9187ZM24.8519 5.98125L20.5269 15.2312C19.5538 13.8942 18.1277 12.9568 16.5144 12.5937L15.6894 10.8187L18.1894 5.44375C18.2413 5.33524 18.3228 5.24362 18.4246 5.17947C18.5263 5.11533 18.6441 5.08127 18.7644 5.08125H24.2769C24.3819 5.07902 24.4857 5.1044 24.5778 5.15486C24.6699 5.20531 24.7472 5.27906 24.8019 5.36875C24.8623 5.45789 24.8986 5.56112 24.9074 5.66843C24.9161 5.77574 24.897 5.88349 24.8519 5.98125Z" fill="white"/>
<path d="M15.0968 21.1L16.3768 21.7725C16.4128 21.7916 16.4534 21.8002 16.4941 21.7974C16.5348 21.7945 16.5738 21.7803 16.6068 21.7563C16.6397 21.7323 16.6653 21.6996 16.6806 21.6618C16.6958 21.624 16.7001 21.5826 16.693 21.5425L16.443 20.1175C16.4368 20.0826 16.4393 20.0468 16.4504 20.0131C16.4616 19.9795 16.4809 19.9492 16.5068 19.925L17.5418 18.9162C17.5716 18.8876 17.5928 18.851 17.6027 18.8108C17.6126 18.7707 17.6109 18.7285 17.5979 18.6892C17.5848 18.6499 17.5608 18.6152 17.5287 18.589C17.4967 18.5628 17.4579 18.5462 17.4168 18.5412L16.0005 18.3362C15.965 18.3301 15.9315 18.3156 15.9028 18.2938C15.8741 18.2721 15.851 18.2438 15.8355 18.2112L15.1955 16.915C15.1777 16.8783 15.1499 16.8473 15.1153 16.8257C15.0807 16.804 15.0407 16.7925 14.9999 16.7925C14.9591 16.7925 14.9191 16.804 14.8845 16.8257C14.8499 16.8473 14.8221 16.8783 14.8043 16.915L14.1643 18.2112C14.1498 18.2442 14.1272 18.273 14.0985 18.2949C14.0699 18.3168 14.0362 18.331 14.0005 18.3362L12.5693 18.5437C12.5282 18.5487 12.4893 18.5653 12.4573 18.5915C12.4252 18.6177 12.4013 18.6524 12.3882 18.6917C12.3751 18.731 12.3734 18.7732 12.3833 18.8133C12.3933 18.8535 12.4144 18.8901 12.4443 18.9187L13.4793 19.9275C13.5049 19.9518 13.524 19.9822 13.5349 20.0158C13.5458 20.0494 13.5482 20.0852 13.5418 20.12L13.2918 21.545C13.2847 21.5851 13.289 21.6265 13.3042 21.6643C13.3195 21.7021 13.345 21.7348 13.378 21.7588C13.411 21.7828 13.45 21.797 13.4907 21.7999C13.5314 21.8027 13.572 21.7941 13.608 21.775L14.888 21.1025C14.9197 21.0841 14.9555 21.0743 14.9921 21.0738C15.0286 21.0734 15.0647 21.0824 15.0968 21.1Z" fill="white"/>
</svg>
