<svg width="30" height="30" viewBox="0 0 30 30" fill="none" xmlns="http://www.w3.org/2000/svg">
<path d="M25.8649 4.69357C25.6927 4.42933 25.4574 4.21213 25.1802 4.06155C24.9031 3.91098 24.5928 3.83177 24.2774 3.83107H18.7649C18.407 3.82984 18.0563 3.93175 17.7548 4.12461C17.4533 4.31748 17.2138 4.59312 17.0649 4.91857L14.9999 9.35606L12.9249 4.91857C12.776 4.59312 12.5364 4.31748 12.2349 4.12461C11.9335 3.93175 11.5828 3.82984 11.2249 3.83107H5.71489C5.39961 3.83245 5.08977 3.91332 4.81403 4.06619C4.53829 4.21906 4.30554 4.43899 4.13733 4.70565C3.96911 4.9723 3.87085 5.27707 3.85163 5.59177C3.83241 5.90646 3.89286 6.22092 4.02739 6.50607L8.68989 16.5311C8.31269 17.4033 8.11705 18.3432 8.11489 19.2936C8.11489 21.1169 8.83922 22.8656 10.1285 24.1549C11.4178 25.4442 13.1665 26.1686 14.9899 26.1686C16.8132 26.1686 18.5619 25.4442 19.8512 24.1549C21.1406 22.8656 21.8649 21.1169 21.8649 19.2936C21.8682 18.3467 21.6723 17.4098 21.2899 16.5436L25.9774 6.50607C26.1103 6.21829 26.1696 5.90199 26.15 5.58561C26.1303 5.26923 26.0324 4.96269 25.8649 4.69357ZM5.15239 5.98107C5.10878 5.88352 5.08942 5.77687 5.09595 5.67021C5.10247 5.56356 5.13471 5.46007 5.18989 5.36857C5.24636 5.28055 5.32401 5.20811 5.41573 5.15788C5.50745 5.10765 5.61031 5.08124 5.71489 5.08107H11.2274C11.3477 5.08109 11.4655 5.11514 11.5672 5.17929C11.669 5.24343 11.7505 5.33505 11.8024 5.44357L15.0649 12.4186H14.9899C13.9109 12.42 12.8474 12.6753 11.8854 13.1639C10.9234 13.6525 10.09 14.3606 9.45239 15.2311L5.15239 5.98107ZM14.9899 24.9186C13.8774 24.9186 12.7898 24.5887 11.8648 23.9706C10.9398 23.3525 10.2188 22.474 9.79306 21.4462C9.36732 20.4183 9.25593 19.2873 9.47297 18.1962C9.69001 17.105 10.2257 16.1028 11.0124 15.3161C11.7991 14.5294 12.8014 13.9937 13.8925 13.7766C14.9836 13.5596 16.1146 13.671 17.1425 14.0967C18.1703 14.5225 19.0488 15.2435 19.6669 16.1685C20.285 17.0935 20.6149 18.181 20.6149 19.2936C20.6149 20.0323 20.4694 20.7637 20.1867 21.4462C19.904 22.1286 19.4897 22.7487 18.9674 23.271C18.445 23.7934 17.8249 24.2077 17.1425 24.4904C16.46 24.7731 15.7286 24.9186 14.9899 24.9186ZM24.8524 5.98107L20.5274 15.2311C19.5543 13.8941 18.1282 12.9566 16.5149 12.5936L15.6899 10.8186L18.1899 5.44357C18.2418 5.33505 18.3233 5.24343 18.425 5.17929C18.5268 5.11514 18.6446 5.08109 18.7649 5.08107H24.2774C24.3824 5.07884 24.4862 5.10422 24.5783 5.15467C24.6704 5.20513 24.7477 5.27888 24.8024 5.36857C24.8628 5.45771 24.8991 5.56093 24.9079 5.66825C24.9166 5.77556 24.8975 5.88331 24.8524 5.98107Z" fill="#0185CA"/>
<path d="M15.0963 21.1004L16.3763 21.7729C16.4123 21.792 16.4529 21.8007 16.4936 21.7978C16.5343 21.795 16.5733 21.7807 16.6063 21.7568C16.6393 21.7328 16.6648 21.7 16.6801 21.6622C16.6953 21.6244 16.6996 21.583 16.6925 21.5429L16.4425 20.1179C16.4363 20.083 16.4388 20.0472 16.45 20.0136C16.4611 19.9799 16.4805 19.9496 16.5063 19.9254L17.5413 18.9167C17.5711 18.888 17.5923 18.8515 17.6022 18.8113C17.6121 18.7711 17.6105 18.7289 17.5974 18.6896C17.5843 18.6504 17.5603 18.6156 17.5283 18.5894C17.4962 18.5632 17.4574 18.5467 17.4163 18.5417L16 18.3367C15.9645 18.3305 15.931 18.316 15.9023 18.2943C15.8736 18.2725 15.8505 18.2442 15.835 18.2117L15.195 16.9154C15.1772 16.8787 15.1494 16.8478 15.1148 16.8261C15.0802 16.8045 15.0402 16.793 14.9994 16.793C14.9586 16.793 14.9186 16.8045 14.884 16.8261C14.8494 16.8478 14.8216 16.8787 14.8038 16.9154L14.1638 18.2117C14.1493 18.2447 14.1267 18.2735 14.0981 18.2953C14.0694 18.3172 14.0357 18.3314 14 18.3367L12.5688 18.5442C12.5277 18.5492 12.4889 18.5657 12.4568 18.5919C12.4247 18.6181 12.4008 18.6529 12.3877 18.6921C12.3746 18.7314 12.3729 18.7736 12.3828 18.8138C12.3928 18.854 12.4139 18.8905 12.4438 18.9192L13.4788 19.9279C13.5044 19.9523 13.5235 19.9826 13.5344 20.0162C13.5453 20.0498 13.5477 20.0857 13.5413 20.1204L13.2913 21.5454C13.2842 21.5855 13.2885 21.6269 13.3037 21.6647C13.319 21.7025 13.3445 21.7353 13.3775 21.7592C13.4105 21.7832 13.4495 21.7975 13.4902 21.8003C13.5309 21.8032 13.5715 21.7945 13.6075 21.7754L14.8875 21.1029C14.9192 21.0846 14.955 21.0747 14.9916 21.0743C15.0281 21.0738 15.0642 21.0828 15.0963 21.1004Z" fill="#0185CA"/>
</svg>
