<svg width="18" height="19" viewBox="0 0 18 19" fill="none" xmlns="http://www.w3.org/2000/svg">
<path d="M14.9309 12.2629C14.2366 11.6598 13.5616 11.2936 13.3109 11.1859C13.1567 11.1321 12.7787 11.0244 12.501 11.0244C12.2233 11.0244 11.951 11.1828 11.7775 11.3443C11.5732 11.5418 11.1125 11.9398 10.881 12.1552C10.5918 12.4244 10.3603 12.4783 10.1289 12.4783C9.89751 12.4783 9.66609 12.4244 9.26111 12.2629C8.85613 12.1013 8.62471 11.8859 7.93045 11.2936C7.37505 10.8198 6.77336 10.0911 6.54194 9.78595C6.38766 9.57056 6.02124 9.0321 5.78982 8.60133C5.55841 8.17056 5.57769 7.77569 5.61626 7.6321C5.65483 7.52441 5.8014 7.25518 6.0791 7.03979C6.42623 6.77056 6.83121 6.55518 7.23619 6.17825C7.64118 5.80133 7.61191 5.52894 7.61191 5.3674C7.61191 5.15201 7.46761 4.72441 7.17834 4.18595C6.88907 3.64748 6.28125 2.83663 5.99198 2.51355C5.69568 2.18263 5.41343 2.08593 5.21128 2.08594C5.09557 2.08594 4.71869 2.1414 4.37204 2.35202C4.11136 2.51041 3.5142 2.94748 3.30207 3.16286C3.07065 3.41414 2.69426 3.85971 2.37639 4.50901C2.15178 4.96784 2.06783 5.56799 2.02926 5.80132C1.99069 6.0526 1.95983 6.74901 2.14497 7.5244C2.37639 8.49363 2.78137 9.19363 3.18635 9.89363C3.59134 10.5936 4.80629 12.209 5.96338 13.2859C7.12048 14.3629 8.16186 14.9552 8.85612 15.3321C9.41152 15.6336 10.3603 15.8885 10.7653 15.9782C10.9582 16.0141 11.4712 16.0859 11.9803 16.0859C12.6167 16.0859 13.5424 15.8167 14.063 15.5475C14.5837 15.2782 15.7408 14.309 15.9144 14.0398C16.0533 13.8244 16.0008 13.4871 15.9144 13.2859C15.8758 13.1962 15.6251 12.8659 14.9309 12.2629Z" fill="#6FC7F5"/>
</svg>
