<svg width="24" height="24" viewBox="0 0 24 24" fill="none" xmlns="http://www.w3.org/2000/svg">
<g clip-path="url(#clip0_665_1588)">
<path d="M10.9202 2.86771C11.0303 2.67887 11.1879 2.52218 11.3774 2.41328C11.5669 2.30438 11.7817 2.24707 12.0002 2.24707C12.2188 2.24707 12.4335 2.30438 12.623 2.41328C12.8125 2.52218 12.9702 2.67887 13.0802 2.86771L15.8752 7.66571L21.3032 8.84171C21.5167 8.8881 21.7144 8.98965 21.8764 9.13624C22.0384 9.28282 22.1592 9.46932 22.2267 9.67713C22.2942 9.88494 22.306 10.1068 22.261 10.3206C22.216 10.5344 22.1157 10.7327 21.9702 10.8957L18.2702 15.0367L18.8302 20.5617C18.8523 20.7793 18.817 20.9988 18.7277 21.1984C18.6384 21.398 18.4983 21.5707 18.3214 21.6993C18.1444 21.8278 17.9369 21.9077 17.7195 21.9309C17.502 21.9542 17.2823 21.9199 17.0822 21.8317L12.0002 19.5917L6.91823 21.8317C6.71815 21.9199 6.49842 21.9542 6.28098 21.9309C6.06355 21.9077 5.85601 21.8278 5.6791 21.6993C5.50219 21.5707 5.36209 21.398 5.2728 21.1984C5.1835 20.9988 5.14814 20.7793 5.17023 20.5617L5.73023 15.0367L2.03023 10.8967C1.88446 10.7337 1.78398 10.5354 1.73884 10.3214C1.6937 10.1075 1.70547 9.88544 1.77297 9.67746C1.84048 9.46949 1.96135 9.28286 2.12354 9.1362C2.28572 8.98955 2.48353 8.88801 2.69723 8.84171L8.12523 7.66571L10.9202 2.86771Z" fill="#F9F369"/>
</g>
<defs>
<clipPath id="clip0_665_1588">
<rect width="24" height="24" fill="white"/>
</clipPath>
</defs>
</svg>
