<svg width="12" height="6" viewBox="0 0 12 6" fill="none" xmlns="http://www.w3.org/2000/svg">
<path d="M11.6633 0.279313C11.45 0.100415 11.1615 0 10.8607 0C10.56 0 10.2715 0.100415 10.0582 0.279313L5.97154 3.67957L1.94179 0.279313C1.72851 0.100415 1.43999 0 1.13926 0C0.838521 0 0.550005 0.100415 0.336721 0.279313C0.230026 0.368606 0.145339 0.474841 0.0875465 0.59189C0.0297541 0.708939 0 0.834485 0 0.961285C0 1.08809 0.0297541 1.21363 0.0875465 1.33068C0.145339 1.44773 0.230026 1.55396 0.336721 1.64326L5.16331 5.71588C5.26914 5.80591 5.39504 5.87736 5.53376 5.92613C5.67248 5.97489 5.82127 6 5.97154 6C6.12182 6 6.2706 5.97489 6.40932 5.92613C6.54804 5.87736 6.67394 5.80591 6.77977 5.71588L11.6633 1.64326C11.77 1.55396 11.8547 1.44773 11.9125 1.33068C11.9702 1.21363 12 1.08809 12 0.961285C12 0.834485 11.9702 0.708939 11.9125 0.59189C11.8547 0.474841 11.77 0.368606 11.6633 0.279313Z" fill="#0185CA"/>
</svg>
